<svg width="82" height="15" viewBox="0 0 82 15" fill="none" xmlns="http://www.w3.org/2000/svg">
<path d="M5.1 14.74C4.26667 14.74 3.51 14.6 2.83 14.32C2.15667 14.0333 1.58 13.64 1.1 13.14C0.626667 12.64 0.28 12.0633 0.0600001 11.41L1.94 10.72C2.22667 11.3467 2.64667 11.8567 3.2 12.25C3.76 12.6367 4.41 12.83 5.15 12.83C5.94333 12.83 6.57667 12.6467 7.05 12.28C7.53 11.9133 7.77 11.3767 7.77 10.67C7.77 10.1833 7.62667 9.77333 7.34 9.44C7.06 9.10667 6.68667 8.82667 6.22 8.6C5.76 8.36667 5.26 8.15333 4.72 7.96C4.22667 7.78 3.73 7.58333 3.23 7.37C2.73 7.15 2.27667 6.88667 1.87 6.58C1.46333 6.27333 1.13333 5.89667 0.88 5.45C0.633333 5.00333 0.51 4.46333 0.51 3.83C0.51 3.18333 0.683333 2.59 1.03 2.05C1.38333 1.51 1.89 1.07667 2.55 0.749999C3.21 0.423333 4.00667 0.26 4.94 0.26C5.70667 0.26 6.38 0.38 6.96 0.62C7.54667 0.853333 8.03 1.17667 8.41 1.59C8.79 1.99667 9.05333 2.46 9.2 2.98L7.36 3.59C7.18667 3.19 6.88667 2.85 6.46 2.57C6.04 2.29 5.49 2.15 4.81 2.15C4.11667 2.15 3.57 2.3 3.17 2.6C2.77667 2.9 2.58 3.31333 2.58 3.84C2.58 4.22667 2.71333 4.55333 2.98 4.82C3.24667 5.08 3.59667 5.31 4.03 5.51C4.47 5.71 4.94667 5.90333 5.46 6.09C5.97333 6.27667 6.48667 6.49 7 6.73C7.51333 6.96333 7.98333 7.25 8.41 7.59C8.84333 7.93 9.19 8.35 9.45 8.85C9.71 9.34333 9.84 9.94 9.84 10.64C9.84 11.5133 9.63 12.2567 9.21 12.87C8.79667 13.4767 8.23333 13.94 7.52 14.26C6.80667 14.58 6 14.74 5.1 14.74ZM17.735 14.5V0.499999H19.755V6.3H26.135V0.499999H28.155V14.5H26.135V8.21H19.755V14.5H17.735ZM34.8995 14.5L39.9795 0.499999H41.8795L46.9695 14.5H44.8595L43.6895 11.23H38.1995L37.0495 14.5H34.8995ZM38.8195 9.42H43.0395L41.3695 4.71C41.3229 4.58333 41.2729 4.44 41.2195 4.28C41.1662 4.11333 41.1129 3.95 41.0595 3.79C41.0062 3.63 40.9662 3.49 40.9395 3.37C40.9062 3.49 40.8629 3.63 40.8095 3.79C40.7629 3.95 40.7129 4.11333 40.6595 4.28C40.6062 4.44 40.5562 4.58333 40.5095 4.71L38.8195 9.42ZM53.7116 14.5V0.499999H59.5116C60.6516 0.499999 61.5482 0.696666 62.2016 1.09C62.8549 1.48333 63.3182 1.99333 63.5916 2.62C63.8716 3.24667 64.0116 3.90667 64.0116 4.6C64.0116 5.14 63.9049 5.68 63.6916 6.22C63.4782 6.76 63.1416 7.23667 62.6816 7.65C62.2282 8.06333 61.6382 8.36 60.9116 8.54L63.8316 14.5H61.5516L58.7516 8.73H55.7316V14.5H53.7116ZM55.7316 6.84H59.5516C60.1516 6.84 60.6249 6.73333 60.9716 6.52C61.3249 6.3 61.5749 6.02333 61.7216 5.69C61.8749 5.35 61.9516 4.99667 61.9516 4.63C61.9516 4.29667 61.8816 3.96 61.7416 3.62C61.6016 3.27333 61.3582 2.98333 61.0116 2.75C60.6649 2.51 60.1782 2.39 59.5516 2.39H55.7316V6.84ZM71.9733 14.5V0.499999H80.6733V2.41H73.9933V6.31H78.2433V8.22H73.9933V12.57H81.1033V14.5H71.9733Z" fill="#DFDFD6"/>
</svg>
